<?xml version="1.0" encoding="utf-8"?>
<!-- Designed by Vexels.com - 2016 All Rights Reserved - https://vexels.com/terms-and-conditions/  -->

<svg version="1.0" id="Capa_1" xmlns="http://www.w3.org/2000/svg" xmlns:xlink="http://www.w3.org/1999/xlink" x="0px" y="0px"
	 width="1200px" height="1200px" viewBox="0 0 1200 1200" enable-background="new 0 0 1200 1200" xml:space="preserve">
<g>
	<path fill="#DE2529" d="M193.357,326.207c-3.328-2.492-9.226-2.011-13.545,3.385C127.605,410.424,100,503.935,100,600.018
		c0,275.653,224.252,499.918,499.896,499.918c275.764,0,500.104-224.266,500.104-499.918c0-275.675-224.34-499.954-500.104-499.954
		c-115.814,0-228.79,40.696-318.656,115.14c-4.273,5.287-3.46,10.794-0.457,13.499c2.721,2.454,7.747,3.01,12.138-1.367
		c86.244-71.178,195.272-110.38,306.976-110.38c266.45,0,483.218,216.703,483.218,483.062
		c0,266.344-216.768,483.032-483.218,483.032c-266.33,0-482.995-216.688-482.995-483.032c0-92.631,26.539-182.8,76.661-260.623
		C197.703,333.495,196.447,328.52,193.357,326.207z"/>
	<path fill="#DE2529" d="M924.32,761.601c25.445-50.973,38.353-105.339,38.353-161.583c0-199.981-162.745-362.68-362.777-362.68
		c-81.852,0-159.24,26.874-223.778,77.72l-8.279,6.521l551.762,449.455L924.32,761.601z M394.956,321.896
		c59.792-44.29,130.541-67.665,204.941-67.665c190.718,0,345.891,155.121,345.891,345.787c0,50.078-10.763,98.67-31.981,144.506
		L394.956,321.896z"/>
	<path fill="#DE2529" d="M278.639,432.1c-27.487,52.547-41.43,109.043-41.43,167.918c0,199.98,162.699,362.679,362.687,362.679
		c83.597,0,165.125-29.083,229.589-81.889l8.014-6.542L283.414,422.911L278.639,432.1z M810.663,874.184
		c-60.074,46.22-134.724,71.621-210.767,71.621c-190.672,0-345.786-155.121-345.786-345.787c0-52.673,11.71-103.402,34.805-150.849
		L810.663,874.184z"/>
</g>
</svg>
